<svg xmlns="http://www.w3.org/2000/svg" viewBox="0 0 1440 320">
	<path fill="#00c2a8" fill-opacity="1"
		d="M0,256L26.7,261.3C53.3,267,107,277,160,277.3C213.3,277,267,267,320,245.3C373.3,224,427,192,480,186.7C533.3,181,587,203,640,202.7C693.3,203,747,181,800,176C853.3,171,907,181,960,160C1013.3,139,1067,85,1120,74.7C1173.3,64,1227,96,1280,133.3C1333.3,171,1387,213,1413,234.7L1440,256L1440,320L1413.3,320C1386.7,320,1333,320,1280,320C1226.7,320,1173,320,1120,320C1066.7,320,1013,320,960,320C906.7,320,853,320,800,320C746.7,320,693,320,640,320C586.7,320,533,320,480,320C426.7,320,373,320,320,320C266.7,320,213,320,160,320C106.7,320,53,320,27,320L0,320Z">
	</path>
</svg>